<svg xmlns="http://www.w3.org/2000/svg" viewBox="0 0 197 184">
  <path fill="#111214" fill-rule="evenodd" d="M82 76 L83 81 L86 84 L93 87 L105 86 L109 84 L113 79 L113 76 L111 74 L107 74 L104 77 L98 79 L93 78 L87 74 L84 74Z M62 57 L57 63 L58 69 L62 73 L65 74 L70 73 L74 69 L75 66 L74 61 L70 57Z M130 56 L124 58 L121 61 L120 64 L121 69 L125 73 L128 74 L133 73 L137 69 L138 65 L137 61 L133 57Z M53 15 L41 27 L32 42 L25 61 L18 98 L16 128 L15 129 L14 156 L7 159 L2 163 L0 167 L0 174 L2 177 L7 181 L16 183 L56 183 L66 180 L71 176 L75 168 L76 140 L78 133 L89 122 L103 121 L111 125 L117 134 L119 141 L120 169 L123 175 L130 181 L137 183 L178 183 L179 182 L185 182 L191 179 L195 173 L194 165 L190 160 L181 156 L178 106 L177 105 L177 98 L176 97 L176 91 L175 90 L172 69 L165 47 L153 26 L142 15 L133 9 L116 2 L106 1 L105 0 L91 0 L76 3 L62 9Z M64 26 L83 17 L108 16 L116 18 L128 24 L144 40 L154 61 L161 93 L163 116 L164 117 L164 130 L165 131 L165 166 L164 167 L138 167 L135 164 L134 140 L133 139 L133 134 L128 122 L117 111 L105 106 L90 106 L81 109 L69 119 L63 130 L61 138 L61 147 L60 148 L60 164 L57 167 L31 167 L30 166 L31 119 L32 118 L32 108 L33 107 L35 86 L39 71 L39 67 L45 50 L50 41Z"/>
</svg>
